<svg xmlns="http://www.w3.org/2000/svg" xmlns:xlink="http://www.w3.org/1999/xlink" id="body_5" preserveAspectRatio="xMinYMin meet" viewBox="0 0 931 1303"><defs><clipPath id="1"><path id="" clip-rule="evenodd" transform="matrix(1 0 0 1 0 0)" d="M0 977L0 0L0 0L698 0L698 0L698 977L698 977L0 977z" /></clipPath><clipPath id="2"><path id="" clip-rule="evenodd" transform="matrix(1 0 0 1 0 0)" d="M0 977L698 977L698 977L698 0L698 0L0 0z" /></clipPath><clipPath id="3"><path id="" clip-rule="evenodd" transform="matrix(1 0 0 1 0 0)" d="M39 153L659 153L659 153L659 0L659 0L39 0z" /></clipPath><clipPath id="4"><path id="" clip-rule="evenodd" transform="matrix(1 0 0 1 0 0)" d="M39 152L659 152L659 152L659 0L659 0L39 0z" /></clipPath><clipPath id="5"><path id="" clip-rule="evenodd" transform="matrix(1 0 0 1 0 0)" d="M39 152L659 152L659 152L659 0L659 0L39 0z" /></clipPath><clipPath id="6"><path id="" clip-rule="evenodd" transform="matrix(1 0 0 1 0 0)" d="M110 48L110 82C 110 82.55231 109.5523 83 109 83L109 83L41 83C 40.44772 83 40 82.55231 40 82L40 82L40 14C 40 13.44769 40.44772 13 41 13L41 13L109 13C 109.5523 13 110 13.44769 110 14z" /></clipPath><clipPath id="7"><path id="" clip-rule="evenodd" transform="matrix(1 0 0 1 0 0)" d="M39 152L659 152L659 152L659 0L659 0L39 0z" /></clipPath><clipPath id="8"><path id="" clip-rule="evenodd" transform="matrix(1 0 0 1 0 0)" d="M121 78L609 78L609 78L609 12L609 12L121 12z" /></clipPath><clipPath id="9"><path id="" clip-rule="evenodd" transform="matrix(1 0 0 1 0 0)" d="M39 306L659 306L659 306L659 153L659 153L39 153z" /></clipPath><clipPath id="10"><path id="" clip-rule="evenodd" transform="matrix(1 0 0 1 0 0)" d="M39 305L659 305L659 305L659 153L659 153L39 153z" /></clipPath><clipPath id="11"><path id="" clip-rule="evenodd" transform="matrix(1 0 0 1 0 0)" d="M39 305L659 305L659 305L659 153L659 153L39 153z" /></clipPath><clipPath id="12"><path id="" clip-rule="evenodd" transform="matrix(1 0 0 1 0 0)" d="M110 201L110 235C 110 235.5523 109.5523 236 109 236L109 236L41 236C 40.44772 236 40 235.5523 40 235L40 235L40 167C 40 166.4477 40.44772 166 41 166L41 166L109 166C 109.5523 166 110 166.4477 110 167z" /></clipPath><clipPath id="13"><path id="" clip-rule="evenodd" transform="matrix(1 0 0 1 0 0)" d="M39 305L659 305L659 305L659 153L659 153L39 153z" /></clipPath><clipPath id="14"><path id="" clip-rule="evenodd" transform="matrix(1 0 0 1 0 0)" d="M121 231L609 231L609 231L609 165L609 165L121 165z" /></clipPath><clipPath id="15"><path id="" clip-rule="evenodd" transform="matrix(1 0 0 1 0 0)" d="M39 435L659 435L659 435L659 306L659 306L39 306z" /></clipPath><clipPath id="16"><path id="" clip-rule="evenodd" transform="matrix(1 0 0 1 0 0)" d="M39 434L659 434L659 434L659 306L659 306L39 306z" /></clipPath><clipPath id="17"><path id="" clip-rule="evenodd" transform="matrix(1 0 0 1 0 0)" d="M39 434L659 434L659 434L659 306L659 306L39 306z" /></clipPath><clipPath id="18"><path id="" clip-rule="evenodd" transform="matrix(1 0 0 1 0 0)" d="M110 354L110 388C 110 388.5523 109.5523 389 109 389L109 389L41 389C 40.44772 389 40 388.5523 40 388L40 388L40 320C 40 319.4477 40.44772 319 41 319L41 319L109 319C 109.5523 319 110 319.4477 110 320z" /></clipPath><clipPath id="19"><path id="" clip-rule="evenodd" transform="matrix(1 0 0 1 0 0)" d="M39 434L659 434L659 434L659 306L659 306L39 306z" /></clipPath><clipPath id="20"><path id="" clip-rule="evenodd" transform="matrix(1 0 0 1 0 0)" d="M121 384L609 384L609 384L609 318L609 318L121 318z" /></clipPath><clipPath id="21"><path id="" clip-rule="evenodd" transform="matrix(1 0 0 1 0 0)" d="M0 977L698 977L698 977L698 0L698 0L0 0z" /></clipPath><clipPath id="22"><path id="" clip-rule="evenodd" transform="matrix(1 0 0 1 0 0)" d="M312 569L398 569L398 569L398 533L398 533L312 533z" /></clipPath><mask id="m1"><clipPath id="23"><path id="" clip-rule="evenodd" transform="matrix(1 0 0 1 0 0)" d="M312 597L408 597L408 597L408 533L408 533L312 533z" /></clipPath><clipPath id="24"><path id="" clip-rule="evenodd" transform="matrix(1 0 0 1 0 0)" d="M312 597L408 597L408 597L408 533L408 533L312 533z" /></clipPath><g><g><g clip-path="url(#23)"><g clip-path="url(#24)"><g transform="matrix(1 0 0 1 312 533)"><g transform="matrix(1 0 0 1 0 0)"><image x="0" y="0" xlink:href="img_26.png" width="96" height="64" /></g></g></g></g></g></g></mask><clipPath id="25"><path id="" clip-rule="evenodd" transform="matrix(1 0 0 1 0 0)" d="M0 977L698 977L698 977L698 0L698 0L0 0z" /></clipPath><clipPath id="26"><path id="" clip-rule="evenodd" transform="matrix(1 0 0 1 0 0)" d="M29 574L77 574L77 574L77 526L77 526L29 526z" /></clipPath><clipPath id="27"><path id="" clip-rule="evenodd" transform="matrix(1 0 0 1 0 0)" d="M0 977L698 977L698 977L698 0L698 0L0 0z" /></clipPath></defs><g transform="matrix(1.333333 0 0 1.333333 0 0)"><g clip-path="url(#1)"><g clip-path="url(#2)"><path id="1" transform="matrix(1 0 0 -1 0 977)" d="M0 977L698 977L698 390L0 390z" stroke="none" fill="#FFFFFF" fill-rule="nonzero" /><path id="2" transform="matrix(1 0 0 -1 0 977)" d="M0 4885L698 4885L698 390L0 390z" stroke="none" fill="#FAFBFC" fill-rule="nonzero" /><path id="3" transform="matrix(1 0 0 -1 0 977)" d="M29 4761L669 4761L669 486L29 486z" stroke="none" fill="#FFFFFF" fill-rule="nonzero" /></g><g clip-path="url(#3)"><path id="4" transform="matrix(1 0 0 -1 0 977)" d="M39 825L659 825L659 824L39 824z" stroke="none" fill="#EAEAEB" fill-rule="nonzero" /></g><g clip-path="url(#4)"></g><g clip-path="url(#5)"><path id="44" transform="matrix(1 0 0 -1 0 977)" d="M110 929L110 895C 110 894.4477 109.5523 894 109 894L109 894L41 894C 40.44772 894 40 894.4477 40 895L40 895L40 963C 40 963.5523 40.44772 964 41 964L41 964L109 964C 109.5523 964 110 963.5523 110 963zM111 929L111 895C 111 893.8954 110.1046 893 109 893L109 893L41 893C 39.89543 893 39 893.8954 39 895L39 895L39 963C 39 964.1046 39.89543 965 41 965L41 965L109 965C 110.1046 965 111 964.1046 111 963z" stroke="none" fill="#EDEDED" fill-rule="evenodd" /></g><g clip-path="url(#6)"><g clip-path="url(#7)"><g transform="matrix(1.09375 0 0 1.09375 40 13)"><g transform="matrix(1 0 0 1 0 0)"><image x="0" y="0" xlink:href="img_24.png" width="64" height="64" /></g></g></g></g><g clip-path="url(#8)"></g><g clip-path="url(#9)"><path id="72" transform="matrix(1 0 0 -1 0 977)" d="M39 672L659 672L659 671L39 671z" stroke="none" fill="#EAEAEB" fill-rule="nonzero" /></g><g clip-path="url(#10)"></g><g clip-path="url(#11)"><path id="127" transform="matrix(1 0 0 -1 0 977)" d="M110 776L110 742C 110 741.4477 109.5523 741 109 741L109 741L41 741C 40.44772 741 40 741.4477 40 742L40 742L40 810C 40 810.5523 40.44772 811 41 811L41 811L109 811C 109.5523 811 110 810.5523 110 810zM111 776L111 742C 111 740.8954 110.1046 740 109 740L109 740L41 740C 39.89543 740 39 740.8954 39 742L39 742L39 810C 39 811.1046 39.89543 812 41 812L41 812L109 812C 110.1046 812 111 811.1046 111 810z" stroke="none" fill="#EDEDED" fill-rule="evenodd" /></g><g clip-path="url(#12)"><g clip-path="url(#13)"><g transform="matrix(1.09375 0 0 1.09375 40 166)"><g transform="matrix(1 0 0 1 0 0)"><image x="0" y="0" xlink:href="img_09.png" width="64" height="64" /></g></g></g></g><g clip-path="url(#14)"></g><g clip-path="url(#15)"><path id="154" transform="matrix(1 0 0 -1 0 977)" d="M39 543L659 543L659 542L39 542z" stroke="none" fill="#EAEAEB" fill-rule="nonzero" /></g><g clip-path="url(#16)"></g><g clip-path="url(#17)"><path id="181" transform="matrix(1 0 0 -1 0 977)" d="M110 623L110 589C 110 588.4477 109.5523 588 109 588L109 588L41 588C 40.44772 588 40 588.4477 40 589L40 589L40 657C 40 657.5523 40.44772 658 41 658L41 658L109 658C 109.5523 658 110 657.5523 110 657zM111 623L111 589C 111 587.8954 110.1046 587 109 587L109 587L41 587C 39.89543 587 39 587.8954 39 589L39 589L39 657C 39 658.1046 39.89543 659 41 659L41 659L109 659C 110.1046 659 111 658.1046 111 657z" stroke="none" fill="#EDEDED" fill-rule="evenodd" /></g><g clip-path="url(#18)"><g clip-path="url(#19)"><g transform="matrix(0.02144608 0 0 0.01420455 40 319)"><g transform="matrix(1 0 0 1 0 0)"><image x="0" y="0" xlink:href="img_25.png" width="3264" height="4928" /></g></g></g></g><g clip-path="url(#20)"></g><g clip-path="url(#21)"><path id="210" transform="matrix(1 0 0 -1 0 977)" d="M0 466L698 466L698 390L0 390z" stroke="none" fill="#EDEDED" fill-rule="nonzero" /><path id="211" transform="matrix(1 0 0 -1 0 977)" d="M0 466L698 466L698 465L0 465z" stroke="none" fill="#CCCCCC" fill-rule="nonzero" /></g><g clip-path="url(#22)"><path id="213" transform="matrix(1 0 0 -1 0 977)" d="M312 444L398 444L398 408L312 408z" stroke="none" fill="#000000" fill-rule="nonzero" /></g><g clip-path="url(#25)"><path id="214" transform="matrix(1 0 0 -1 0 977)" d="M395 427L395 424C 395 417.3726 389.6274 412 383 412L383 412L327 412C 320.3726 412 315 417.3726 315 424L315 424L315 430C 315 436.6274 320.3726 442 327 442L327 442L383 442C 389.6274 442 395 436.6274 395 430z" stroke="none" fill="#3C9F0E" fill-rule="nonzero" /></g><g clip-path="url(#26)"><g transform="matrix(0.7164179 0 0 0.7164179 29 526)"><g transform="matrix(1 0 0 1 0 0)"><image x="0" y="0" xlink:href="img_27.png" width="67" height="67" /></g></g></g><g clip-path="url(#27)"><path id="225" transform="matrix(1 0 0 -1 0 977)" d="M302 443.5L302 443C 302 437.4772 297.5228 433 292 433L292 433L220 433C 214.4772 433 210 437.4772 210 443L210 443L210 444C 210 449.5228 214.4772 454 220 454L220 454L292 454C 297.5228 454 302 449.5228 302 444z" stroke="none" fill="#7BBE1E" fill-rule="nonzero" /><path id="226" transform="matrix(1 0 0 -1 0 977)" d="M301 443.5L301 443C 301 438.0294 296.9706 434 292 434L292 434L220 434C 215.0294 434 211 438.0294 211 443L211 443L211 444C 211 448.9706 215.0294 453 220 453L220 453L292 453C 296.9706 453 301 448.9706 301 444zM302 443.5L302 443C 302 437.4772 297.5228 433 292 433L292 433L220 433C 214.4772 433 210 437.4772 210 443L210 443L210 444C 210 449.5228 214.4772 454 220 454L220 454L292 454C 297.5228 454 302 449.5228 302 444z" stroke="none" fill="#7BBE1E" fill-rule="evenodd" /></g></g></g></svg>