<svg xmlns="http://www.w3.org/2000/svg" xmlns:xlink="http://www.w3.org/1999/xlink" id="body_2" preserveAspectRatio="xMinYMin meet" viewBox="0 0 931 1303"><defs><clipPath id="1"><path id="" clip-rule="evenodd" transform="matrix(1 0 0 1 0 0)" d="M0 977L0 0L0 0L698 0L698 0L698 977L698 977L0 977z" /></clipPath><clipPath id="2"><path id="" clip-rule="evenodd" transform="matrix(1 0 0 1 0 0)" d="M0 977L698 977L698 977L698 0L698 0L0 0z" /></clipPath><clipPath id="3"><path id="" clip-rule="evenodd" transform="matrix(1 0 0 1 0 0)" d="M29 977L669 977L669 977L669 0L669 0L29 0z" /></clipPath><clipPath id="4"><path id="" clip-rule="evenodd" transform="matrix(1 0 0 1 0 0)" d="M39 88L659 88L659 88L659 0L659 0L39 0z" /></clipPath><clipPath id="5"><path id="" clip-rule="evenodd" transform="matrix(1 0 0 1 0 0)" d="M110 39.79688L110 73.79688C 110 74.34918 109.5523 74.79688 109 74.79688L109 74.79688L41 74.79688C 40.44772 74.79688 40 74.34918 40 73.79688L40 73.79688L40 5.796875C 40 5.244629 40.44772 4.796875 41 4.796875L41 4.796875L109 4.796875C 109.5523 4.796875 110 5.244629 110 5.796875z" /></clipPath><clipPath id="6"><path id="" clip-rule="evenodd" transform="matrix(1 0 0 1 0 0)" d="M39 88L659 88L659 88L659 0L659 0L39 0z" /></clipPath><clipPath id="7"><path id="" clip-rule="evenodd" transform="matrix(1 0 0 1 0 0)" d="M121 70L609 70L609 70L609 0L609 0L121 0z" /></clipPath><clipPath id="8"><path id="" clip-rule="evenodd" transform="matrix(1 0 0 1 0 0)" d="M39 88L659 88L659 88L659 0L659 0L39 0z" /></clipPath><clipPath id="9"><path id="" clip-rule="evenodd" transform="matrix(1 0 0 1 0 0)" d="M39 239L659 239L659 239L659 89L659 89L39 89z" /></clipPath><clipPath id="10"><path id="" clip-rule="evenodd" transform="matrix(1 0 0 1 0 0)" d="M39 238L659 238L659 238L659 89L659 89L39 89z" /></clipPath><clipPath id="11"><path id="" clip-rule="evenodd" transform="matrix(1 0 0 1 0 0)" d="M39 355L659 355L659 355L659 239L659 239L39 239z" /></clipPath><clipPath id="12"><path id="" clip-rule="evenodd" transform="matrix(1 0 0 1 0 0)" d="M110 306.7969L110 340.7969C 110 341.3492 109.5523 341.7969 109 341.7969L109 341.7969L41 341.7969C 40.44772 341.7969 40 341.3492 40 340.7969L40 340.7969L40 272.7969C 40 272.2446 40.44772 271.7969 41 271.7969L41 271.7969L109 271.7969C 109.5523 271.7969 110 272.2446 110 272.7969z" /></clipPath><clipPath id="13"><path id="" clip-rule="evenodd" transform="matrix(1 0 0 1 0 0)" d="M39 355L659 355L659 355L659 239L659 239L39 239z" /></clipPath><clipPath id="14"><path id="" clip-rule="evenodd" transform="matrix(1 0 0 1 0 0)" d="M121 337L609 337L609 337L609 251L609 251L121 251z" /></clipPath><clipPath id="15"><path id="" clip-rule="evenodd" transform="matrix(1 0 0 1 0 0)" d="M39 355L659 355L659 355L659 239L659 239L39 239z" /></clipPath><clipPath id="16"><path id="" clip-rule="evenodd" transform="matrix(1 0 0 1 0 0)" d="M39 506L659 506L659 506L659 356L659 356L39 356z" /></clipPath><clipPath id="17"><path id="" clip-rule="evenodd" transform="matrix(1 0 0 1 0 0)" d="M39 505L659 505L659 505L659 356L659 356L39 356z" /></clipPath><clipPath id="18"><path id="" clip-rule="evenodd" transform="matrix(1 0 0 1 0 0)" d="M39 720L659 720L659 720L659 514L659 514L39 514z" /></clipPath><clipPath id="19"><path id="" clip-rule="evenodd" transform="matrix(1 0 0 1 0 0)" d="M39 719L659 719L659 719L659 514L659 514L39 514z" /></clipPath><clipPath id="20"><path id="" clip-rule="evenodd" transform="matrix(1 0 0 1 0 0)" d="M39 719L659 719L659 719L659 514L659 514L39 514z" /></clipPath><clipPath id="21"><path id="" clip-rule="evenodd" transform="matrix(1 0 0 1 0 0)" d="M110 561.7969L110 595.7969C 110 596.3492 109.5523 596.7969 109 596.7969L109 596.7969L41 596.7969C 40.44772 596.7969 40 596.3492 40 595.7969L40 595.7969L40 527.7969C 40 527.2446 40.44772 526.7969 41 526.7969L41 526.7969L109 526.7969C 109.5523 526.7969 110 527.2446 110 527.7969z" /></clipPath><clipPath id="22"><path id="" clip-rule="evenodd" transform="matrix(1 0 0 1 0 0)" d="M39 719L659 719L659 719L659 514L659 514L39 514z" /></clipPath><clipPath id="23"><path id="" clip-rule="evenodd" transform="matrix(1 0 0 1 0 0)" d="M121 592L609 592L609 592L609 526L609 526L121 526z" /></clipPath><clipPath id="24"><path id="" clip-rule="evenodd" transform="matrix(1 0 0 1 0 0)" d="M39 925L659 925L659 925L659 720L659 720L39 720z" /></clipPath><clipPath id="25"><path id="" clip-rule="evenodd" transform="matrix(1 0 0 1 0 0)" d="M39 924L659 924L659 924L659 720L659 720L39 720z" /></clipPath><clipPath id="26"><path id="" clip-rule="evenodd" transform="matrix(1 0 0 1 0 0)" d="M39 924L659 924L659 924L659 720L659 720L39 720z" /></clipPath><clipPath id="27"><path id="" clip-rule="evenodd" transform="matrix(1 0 0 1 0 0)" d="M110 767.7969L110 801.7969C 110 802.3492 109.5523 802.7969 109 802.7969L109 802.7969L41 802.7969C 40.44772 802.7969 40 802.3492 40 801.7969L40 801.7969L40 733.7969C 40 733.2446 40.44772 732.7969 41 732.7969L41 732.7969L109 732.7969C 109.5523 732.7969 110 733.2446 110 733.7969z" /></clipPath><clipPath id="28"><path id="" clip-rule="evenodd" transform="matrix(1 0 0 1 0 0)" d="M39 924L659 924L659 924L659 720L659 720L39 720z" /></clipPath><clipPath id="29"><path id="" clip-rule="evenodd" transform="matrix(1 0 0 1 0 0)" d="M121 798L609 798L609 798L609 732L609 732L121 732z" /></clipPath><clipPath id="30"><path id="" clip-rule="evenodd" transform="matrix(1 0 0 1 0 0)" d="M121 977L609 977L609 977L609 937L609 937L121 937z" /></clipPath></defs><g transform="matrix(1.333333 0 0 1.333333 0 0)"><g clip-path="url(#1)"><g clip-path="url(#2)"><path id="1" transform="matrix(1 0 0 -1 0 977)" d="M0 977L698 977L698 0L0 0z" stroke="none" fill="#FFFFFF" fill-rule="nonzero" /><path id="2" transform="matrix(1 0 0 -1 0 977)" d="M0 1954L698 1954L698 -2541L0 -2541z" stroke="none" fill="#FAFBFC" fill-rule="nonzero" /><path id="3" transform="matrix(1 0 0 -1 0 977)" d="M29 1830L669 1830L669 -2445L29 -2445z" stroke="none" fill="#FFFFFF" fill-rule="nonzero" /></g><g clip-path="url(#3)"><path id="4" transform="matrix(1 0 0 -1 0 977)" d="M29 1005L669 1005L669 888L29 888z" stroke="none" fill="#FFFFFF" fill-rule="nonzero" /><path id="5" transform="matrix(1 0 0 -1 0 977)" d="M29 889L669 889L669 888L29 888z" stroke="none" fill="#EAEAEB" fill-rule="nonzero" /><path id="6" transform="matrix(1 0 0 -1 0 977)" d="M29 738L669 738L669 621L29 621z" stroke="none" fill="#FFFFFF" fill-rule="nonzero" /><path id="7" transform="matrix(1 0 0 -1 0 977)" d="M29 622L669 622L669 621L29 621z" stroke="none" fill="#EAEAEB" fill-rule="nonzero" /></g><g clip-path="url(#4)"><path id="8" transform="matrix(1 0 0 -1 0 977)" d="M110 937L110 903C 110 902.4477 109.5523 902 109 902L109 902L41 902C 40.44772 902 40 902.4477 40 903L40 903L40 971C 40 971.5523 40.44772 972 41 972L41 972L109 972C 109.5523 972 110 971.5523 110 971zM111 937L111 903C 111 901.8954 110.1046 901 109 901L109 901L41 901C 39.89543 901 39 901.8954 39 903L39 903L39 971C 39 972.1046 39.89543 973 41 973L41 973L109 973C 110.1046 973 111 972.1046 111 971z" stroke="none" fill="#EDEDED" fill-rule="evenodd" /></g><g clip-path="url(#5)"><g clip-path="url(#6)"><g transform="matrix(0.35 0 0 0.35 40 5)"><g transform="matrix(1 0 0 1 0 0)"><image x="0" y="0" xlink:href="img_06.png" width="200" height="200" /></g></g></g></g><g clip-path="url(#7)"><path id="13" transform="matrix(1 0 0 -1 0 977)" d="M220 954L220 947C 220 945.8954 219.1046 945 218 945L218 945L190 945C 188.8954 945 188 945.8954 188 947L188 947L188 961C 188 962.1046 188.8954 963 190 963L190 963L218 963C 219.1046 963 220 962.1046 220 961z" stroke="none" fill="#2392AA" fill-rule="evenodd" /></g><g clip-path="url(#8)"><path id="20" transform="matrix(1 0 0 -1 0 977)" d="M544 993L649 993L649 954L544 954z" stroke="none" fill="#2392AA" fill-rule="nonzero" /><g transform="matrix(1 0 0 1 544 0)"><g transform="matrix(1 0 0 1 0 0)"><image x="0" y="0" xlink:href="img_04.png" width="32" height="40" /></g></g></g><g clip-path="url(#9)"><path id="27" transform="matrix(1 0 0 -1 0 977)" d="M39 739L659 739L659 738L39 738z" stroke="none" fill="#EAEAEB" fill-rule="nonzero" /></g><g clip-path="url(#10)"></g><g clip-path="url(#11)"><path id="192" transform="matrix(1 0 0 -1 0 977)" d="M110 670L110 636C 110 635.4477 109.5523 635 109 635L109 635L41 635C 40.44772 635 40 635.4477 40 636L40 636L40 704C 40 704.5523 40.44772 705 41 705L41 705L109 705C 109.5523 705 110 704.5523 110 704zM111 670L111 636C 111 634.8954 110.1046 634 109 634L109 634L41 634C 39.89543 634 39 634.8954 39 636L39 636L39 704C 39 705.1046 39.89543 706 41 706L41 706L109 706C 110.1046 706 111 705.1046 111 704z" stroke="none" fill="#EDEDED" fill-rule="evenodd" /></g><g clip-path="url(#12)"><g clip-path="url(#13)"><g transform="matrix(0.35 0 0 0.35 40 272)"><g transform="matrix(1 0 0 1 0 0)"><image x="0" y="0" xlink:href="img_07.png" width="200" height="200" /></g></g></g></g><g clip-path="url(#14)"><path id="197" transform="matrix(1 0 0 -1 0 977)" d="M220 687L220 680C 220 678.8954 219.1046 678 218 678L218 678L190 678C 188.8954 678 188 678.8954 188 680L188 680L188 694C 188 695.1046 188.8954 696 190 696L190 696L218 696C 219.1046 696 220 695.1046 220 694z" stroke="none" fill="#2392AA" fill-rule="evenodd" /></g><g clip-path="url(#15)"><path id="206" transform="matrix(1 0 0 -1 0 977)" d="M544 726L649 726L649 687L544 687z" stroke="none" fill="#2392AA" fill-rule="nonzero" /><g transform="matrix(1 0 0 1 544 251)"><g transform="matrix(1 0 0 1 0 0)"><image x="0" y="0" xlink:href="img_04.png" width="32" height="40" /></g></g></g><g clip-path="url(#16)"><path id="213" transform="matrix(1 0 0 -1 0 977)" d="M39 472L659 472L659 471L39 471z" stroke="none" fill="#EAEAEB" fill-rule="nonzero" /></g><g clip-path="url(#17)"></g><g clip-path="url(#18)"><path id="343" transform="matrix(1 0 0 -1 0 977)" d="M39 258L659 258L659 257L39 257z" stroke="none" fill="#EAEAEB" fill-rule="nonzero" /></g><g clip-path="url(#19)"><path id="488" transform="matrix(1 0 0 -1 0 977)" d="M564 286.5L564 286C 564 280.4772 559.5228 276 554 276L554 276L482 276C 476.4772 276 472 280.4772 472 286L472 286L472 287C 472 292.5228 476.4772 297 482 297L482 297L554 297C 559.5228 297 564 292.5228 564 287z" stroke="none" fill="#7BBE1E" fill-rule="nonzero" /><path id="489" transform="matrix(1 0 0 -1 0 977)" d="M563 286.5L563 286C 563 281.0294 558.9706 277 554 277L554 277L482 277C 477.0294 277 473 281.0294 473 286L473 286L473 287C 473 291.9706 477.0294 296 482 296L482 296L554 296C 558.9706 296 563 291.9706 563 287zM564 286.5L564 286C 564 280.4772 559.5228 276 554 276L554 276L482 276C 476.4772 276 472 280.4772 472 286L472 286L472 287C 472 292.5228 476.4772 297 482 297L482 297L554 297C 559.5228 297 564 292.5228 564 287z" stroke="none" fill="#7BBE1E" fill-rule="evenodd" /></g><g clip-path="url(#20)"><path id="496" transform="matrix(1 0 0 -1 0 977)" d="M110 415L110 381C 110 380.4477 109.5523 380 109 380L109 380L41 380C 40.44772 380 40 380.4477 40 381L40 381L40 449C 40 449.5523 40.44772 450 41 450L41 450L109 450C 109.5523 450 110 449.5523 110 449zM111 415L111 381C 111 379.8954 110.1046 379 109 379L109 379L41 379C 39.89543 379 39 379.8954 39 381L39 381L39 449C 39 450.1046 39.89543 451 41 451L41 451L109 451C 110.1046 451 111 450.1046 111 449z" stroke="none" fill="#EDEDED" fill-rule="evenodd" /></g><g clip-path="url(#21)"><g clip-path="url(#22)"><g transform="matrix(1.09375 0 0 1.09375 40 527)"><g transform="matrix(1 0 0 1 0 0)"><image x="0" y="0" xlink:href="img_08.png" width="64" height="64" /></g></g></g></g><g clip-path="url(#23)"></g><g clip-path="url(#24)"><path id="529" transform="matrix(1 0 0 -1 0 977)" d="M39 53L659 53L659 52L39 52z" stroke="none" fill="#EAEAEB" fill-rule="nonzero" /></g><g clip-path="url(#25)"></g><g clip-path="url(#26)"><path id="660" transform="matrix(1 0 0 -1 0 977)" d="M110 209L110 175C 110 174.4477 109.5523 174 109 174L109 174L41 174C 40.44772 174 40 174.4477 40 175L40 175L40 243C 40 243.5523 40.44772 244 41 244L41 244L109 244C 109.5523 244 110 243.5523 110 243zM111 209L111 175C 111 173.8954 110.1046 173 109 173L109 173L41 173C 39.89543 173 39 173.8954 39 175L39 175L39 243C 39 244.1046 39.89543 245 41 245L41 245L109 245C 110.1046 245 111 244.1046 111 243z" stroke="none" fill="#EDEDED" fill-rule="evenodd" /></g><g clip-path="url(#27)"><g clip-path="url(#28)"><g transform="matrix(1.09375 0 0 1.09375 40 733)"><g transform="matrix(1 0 0 1 0 0)"><image x="0" y="0" xlink:href="img_09.png" width="64" height="64" /></g></g></g></g><g clip-path="url(#29)"></g><g clip-path="url(#30)"></g></g></g></svg>