<svg xmlns="http://www.w3.org/2000/svg" xmlns:xlink="http://www.w3.org/1999/xlink" id="body_1" preserveAspectRatio="xMinYMin meet" viewBox="0 0 931 1303"><defs><clipPath id="1"><path id="" clip-rule="evenodd" transform="matrix(1 0 0 1 0 0)" d="M0 977L0 0L0 0L698 0L698 0L698 977L698 977L0 977z" /></clipPath><clipPath id="2"><path id="" clip-rule="evenodd" transform="matrix(1 0 0 1 0 0)" d="M0 977L698 977L698 977L698 0L698 0L0 0z" /></clipPath><clipPath id="3"><path id="" clip-rule="evenodd" transform="matrix(1 0 0 1 0 0)" d="M29 977L669 977L669 977L669 124L669 124L29 124z" /></clipPath><clipPath id="4"><path id="" clip-rule="evenodd" transform="matrix(1 0 0 1 0 0)" d="M29 977L669 977L669 977L669 124L669 124L29 124z" /></clipPath><clipPath id="5"><path id="" clip-rule="evenodd" transform="matrix(1 0 0 1 0 0)" d="M0 977L698 977L698 977L698 0L698 0L0 0z" /></clipPath><clipPath id="6"><path id="" clip-rule="evenodd" transform="matrix(1 0 0 1 0 0)" d="M29 977L669 977L669 977L669 124L669 124L29 124z" /></clipPath><clipPath id="7"><path id="" clip-rule="evenodd" transform="matrix(1 0 0 1 0 0)" d="M29 977L669 977L669 977L669 124L669 124L29 124z" /></clipPath><clipPath id="8"><path id="" clip-rule="evenodd" transform="matrix(1 0 0 1 0 0)" d="M29 977L669 977L669 977L669 124L669 124L29 124z" /></clipPath><clipPath id="9"><path id="" clip-rule="evenodd" transform="matrix(1 0 0 1 0 0)" d="M39 668L659 668L659 668L659 552L659 552L39 552z" /></clipPath><clipPath id="10"><path id="" clip-rule="evenodd" transform="matrix(1 0 0 1 0 0)" d="M110 619.7969L110 653.7969C 110 654.3492 109.5523 654.7969 109 654.7969L109 654.7969L41 654.7969C 40.44772 654.7969 40 654.3492 40 653.7969L40 653.7969L40 585.7969C 40 585.2446 40.44772 584.7969 41 584.7969L41 584.7969L109 584.7969C 109.5523 584.7969 110 585.2446 110 585.7969z" /></clipPath><clipPath id="11"><path id="" clip-rule="evenodd" transform="matrix(1 0 0 1 0 0)" d="M39 668L659 668L659 668L659 552L659 552L39 552z" /></clipPath><clipPath id="12"><path id="" clip-rule="evenodd" transform="matrix(1 0 0 1 0 0)" d="M121 650L609 650L609 650L609 564L609 564L121 564z" /></clipPath><clipPath id="13"><path id="" clip-rule="evenodd" transform="matrix(1 0 0 1 0 0)" d="M39 668L659 668L659 668L659 552L659 552L39 552z" /></clipPath><clipPath id="14"><path id="" clip-rule="evenodd" transform="matrix(1 0 0 1 0 0)" d="M39 949L659 949L659 949L659 669L659 669L39 669z" /></clipPath><clipPath id="15"><path id="" clip-rule="evenodd" transform="matrix(1 0 0 1 0 0)" d="M39 948L659 948L659 948L659 669L659 669L39 669z" /></clipPath><clipPath id="16"><path id="" clip-rule="evenodd" transform="matrix(1 0 0 1 0 0)" d="M39 977L659 977L659 977L659 949L659 949L39 949z" /></clipPath></defs><g transform="matrix(1.333333 0 0 1.333333 0 0)"><g clip-path="url(#1)"><g clip-path="url(#2)"><path id="1" transform="matrix(1 0 0 -1 0 977)" d="M0 977L698 977L698 0L0 0z" stroke="none" fill="#FFFFFF" fill-rule="nonzero" /><path id="2" transform="matrix(1 0 0 -1 0 977)" d="M0 977L698 977L698 -3518L0 -3518z" stroke="none" fill="#FAFBFC" fill-rule="nonzero" /><path id="3" transform="matrix(1 0 0 -1 0 977)" d="M29 853L669 853L669 -3422L29 -3422z" stroke="none" fill="#FFFFFF" fill-rule="nonzero" /></g><g clip-path="url(#3)"><path id="4" transform="matrix(1 0 0 -1 0 977)" d="M29 507L669 507L669 497L29 497z" stroke="none" fill="#F0F0F0" fill-rule="nonzero" /><path id="5" transform="matrix(1 0 0 -1 0 977)" d="M29 439L669 439L669 438L29 438z" stroke="none" fill="#2492AB" fill-rule="nonzero" /><path id="6" transform="matrix(1 0 0 -1 0 977)" d="M29 425L669 425L669 308L29 308z" stroke="none" fill="#FFFFFF" fill-rule="nonzero" /><path id="7" transform="matrix(1 0 0 -1 0 977)" d="M29 309L669 309L669 308L29 308z" stroke="none" fill="#EAEBEC" fill-rule="nonzero" /><path id="8" transform="matrix(1 0 0 -1 0 977)" d="M29 28L669 28L669 -89L29 -89z" stroke="none" fill="#FFFFFF" fill-rule="nonzero" /></g><g clip-path="url(#4)"><path id="10" transform="matrix(1 0 0 -1 0 977)" d="M520 737L649 737L649 711L520 711z" stroke="none" fill="#EFEFEF" fill-rule="nonzero" /></g><g clip-path="url(#5)"><g transform="matrix(1 0 0 1 29 0)"><g transform="matrix(1 0 0 1 0 0)"><image x="0" y="0" xlink:href="img_01.png" width="640" height="114" /></g></g></g><g clip-path="url(#6)"><path id="28" transform="matrix(1 0 0 -1 0 977)" d="M61 758.5L61 754C 61 751.2386 58.76142 749 56 749L56 749L44 749C 41.23858 749 39 751.2386 39 754L39 754L39 763C 39 765.7614 41.23858 768 44 768L44 768L56 768C 58.76142 768 61 765.7614 61 763z" stroke="none" fill="#F08200" fill-rule="nonzero" /><g transform="matrix(0.5465839 0 0 0.5454545 39 494)"><g transform="matrix(1 0 0 1 0 0)"><image x="0" y="0" xlink:href="img_02.png" width="322" height="55" /></g></g></g><g clip-path="url(#7)"><path id="271" transform="matrix(1 0 0 -1 0 977)" d="M29 853L669 853L669 824L29 824z" stroke="none" fill="#FAFBFC" fill-rule="nonzero" /><path id="272" transform="matrix(1 0 0 -1 0 977)" d="M29 825L669 825L669 824L29 824z" stroke="none" fill="#F0F1F2" fill-rule="nonzero" /></g><g clip-path="url(#8)"></g><g clip-path="url(#9)"><path id="288" transform="matrix(1 0 0 -1 0 977)" d="M110 357L110 323C 110 322.4477 109.5523 322 109 322L109 322L41 322C 40.44772 322 40 322.4477 40 323L40 323L40 391C 40 391.5523 40.44772 392 41 392L41 392L109 392C 109.5523 392 110 391.5523 110 391zM111 357L111 323C 111 321.8954 110.1046 321 109 321L109 321L41 321C 39.89543 321 39 321.8954 39 323L39 323L39 391C 39 392.1046 39.89543 393 41 393L41 393L109 393C 110.1046 393 111 392.1046 111 391z" stroke="none" fill="#EEEEEE" fill-rule="evenodd" /></g><g clip-path="url(#10)"><g clip-path="url(#11)"><g transform="matrix(0.3535354 0 0 0.3589744 40 585)"><g transform="matrix(1 0 0 1 0 0)"><image x="0" y="0" xlink:href="img_03.png" width="198" height="195" /></g></g></g></g><g clip-path="url(#12)"><path id="293" transform="matrix(1 0 0 -1 0 977)" d="M220 374L220 367C 220 365.8954 219.1046 365 218 365L218 365L190 365C 188.8954 365 188 365.8954 188 367L188 367L188 381C 188 382.1046 188.8954 383 190 383L190 383L218 383C 219.1046 383 220 382.1046 220 381z" stroke="none" fill="#2392AA" fill-rule="evenodd" /></g><g clip-path="url(#13)"><path id="300" transform="matrix(1 0 0 -1 0 977)" d="M544 413L649 413L649 374L544 374z" stroke="none" fill="#2392AA" fill-rule="nonzero" /><g transform="matrix(1 0 0 1 544 564)"><g transform="matrix(1 0 0 1 0 0)"><image x="0" y="0" xlink:href="img_04.png" width="32" height="40" /></g></g></g><g clip-path="url(#14)"><path id="307" transform="matrix(1 0 0 -1 0 977)" d="M39 29L659 29L659 28L39 28z" stroke="none" fill="#EAEAEB" fill-rule="nonzero" /></g><g clip-path="url(#15)"><path id="673" transform="matrix(1 0 0 -1 0 977)" d="M367 80.5L367 80C 367 74.47715 362.5228 70 357 70L357 70L285 70C 279.4772 70 275 74.47715 275 80L275 80L275 81C 275 86.52285 279.4772 91 285 91L285 91L357 91C 362.5228 91 367 86.52285 367 81z" stroke="none" fill="#7CBE1F" fill-rule="nonzero" /><path id="674" transform="matrix(1 0 0 -1 0 977)" d="M366 80.5L366 80C 366 75.02944 361.9706 71 357 71L357 71L285 71C 280.0294 71 276 75.02944 276 80L276 80L276 81C 276 85.97056 280.0294 90 285 90L285 90L357 90C 361.9706 90 366 85.97056 366 81zM367 80.5L367 80C 367 74.47715 362.5228 70 357 70L357 70L285 70C 279.4772 70 275 74.47715 275 80L275 80L275 81C 275 86.52285 279.4772 91 285 91L285 91L357 91C 362.5228 91 367 86.52285 367 81z" stroke="none" fill="#7CBE1F" fill-rule="evenodd" /></g><g clip-path="url(#16)"><path id="694" transform="matrix(1 0 0 -1 0 977)" d="M544 16L649 16L649 -23L544 -23z" stroke="none" fill="#2392AA" fill-rule="nonzero" /></g></g></g></svg>