<svg xmlns="http://www.w3.org/2000/svg" xmlns:xlink="http://www.w3.org/1999/xlink" id="body_3" preserveAspectRatio="xMinYMin meet" viewBox="0 0 931 1303"><defs><clipPath id="1"><path id="" clip-rule="evenodd" transform="matrix(1 0 0 1 0 0)" d="M0 977L0 0L0 0L698 0L698 0L698 977L698 977L0 977z" /></clipPath><clipPath id="2"><path id="" clip-rule="evenodd" transform="matrix(1 0 0 1 0 0)" d="M0 977L698 977L698 977L698 0L698 0L0 0z" /></clipPath><clipPath id="3"><path id="" clip-rule="evenodd" transform="matrix(1 0 0 1 0 0)" d="M39 271L659 271L659 271L659 0L659 0L39 0z" /></clipPath><clipPath id="4"><path id="" clip-rule="evenodd" transform="matrix(1 0 0 1 0 0)" d="M39 270L659 270L659 270L659 0L659 0L39 0z" /></clipPath><clipPath id="5"><path id="" clip-rule="evenodd" transform="matrix(1 0 0 1 0 0)" d="M39 270L659 270L659 270L659 0L659 0L39 0z" /></clipPath><clipPath id="6"><path id="" clip-rule="evenodd" transform="matrix(1 0 0 1 0 0)" d="M110 36L110 70C 110 70.55231 109.5523 71 109 71L109 71L41 71C 40.44772 71 40 70.55231 40 70L40 70L40 2C 40 1.447693 40.44772 1 41 1L41 1L109 1C 109.5523 1 110 1.447693 110 2z" /></clipPath><clipPath id="7"><path id="" clip-rule="evenodd" transform="matrix(1 0 0 1 0 0)" d="M39 270L659 270L659 270L659 0L659 0L39 0z" /></clipPath><clipPath id="8"><path id="" clip-rule="evenodd" transform="matrix(1 0 0 1 0 0)" d="M121 32L609 32L609 32L609 0L609 0L121 0z" /></clipPath><clipPath id="9"><path id="" clip-rule="evenodd" transform="matrix(1 0 0 1 0 0)" d="M39 270L659 270L659 270L659 0L659 0L39 0z" /></clipPath><clipPath id="10"><path id="" clip-rule="evenodd" transform="matrix(1 0 0 1 0 0)" d="M39 428L659 428L659 428L659 271L659 271L39 271z" /></clipPath><clipPath id="11"><path id="" clip-rule="evenodd" transform="matrix(1 0 0 1 0 0)" d="M39 427L659 427L659 427L659 271L659 271L39 271z" /></clipPath><clipPath id="12"><path id="" clip-rule="evenodd" transform="matrix(1 0 0 1 0 0)" d="M39 427L659 427L659 427L659 271L659 271L39 271z" /></clipPath><clipPath id="13"><path id="" clip-rule="evenodd" transform="matrix(1 0 0 1 0 0)" d="M110 319L110 353C 110 353.5523 109.5523 354 109 354L109 354L41 354C 40.44772 354 40 353.5523 40 353L40 353L40 285C 40 284.4477 40.44772 284 41 284L41 284L109 284C 109.5523 284 110 284.4477 110 285z" /></clipPath><clipPath id="14"><path id="" clip-rule="evenodd" transform="matrix(1 0 0 1 0 0)" d="M39 427L659 427L659 427L659 271L659 271L39 271z" /></clipPath><clipPath id="15"><path id="" clip-rule="evenodd" transform="matrix(1 0 0 1 0 0)" d="M121 349L609 349L609 349L609 283L609 283L121 283z" /></clipPath><clipPath id="16"><path id="" clip-rule="evenodd" transform="matrix(1 0 0 1 0 0)" d="M39 609L659 609L659 609L659 428L659 428L39 428z" /></clipPath><clipPath id="17"><path id="" clip-rule="evenodd" transform="matrix(1 0 0 1 0 0)" d="M39 608L659 608L659 608L659 428L659 428L39 428z" /></clipPath><clipPath id="18"><path id="" clip-rule="evenodd" transform="matrix(1 0 0 1 0 0)" d="M39 608L659 608L659 608L659 428L659 428L39 428z" /></clipPath><clipPath id="19"><path id="" clip-rule="evenodd" transform="matrix(1 0 0 1 0 0)" d="M110 476L110 510C 110 510.5523 109.5523 511 109 511L109 511L41 511C 40.44772 511 40 510.5523 40 510L40 510L40 442C 40 441.4477 40.44772 441 41 441L41 441L109 441C 109.5523 441 110 441.4477 110 442z" /></clipPath><clipPath id="20"><path id="" clip-rule="evenodd" transform="matrix(1 0 0 1 0 0)" d="M39 608L659 608L659 608L659 428L659 428L39 428z" /></clipPath><clipPath id="21"><path id="" clip-rule="evenodd" transform="matrix(1 0 0 1 0 0)" d="M121 506L609 506L609 506L609 440L609 440L121 440z" /></clipPath><clipPath id="22"><path id="" clip-rule="evenodd" transform="matrix(1 0 0 1 0 0)" d="M39 836L659 836L659 836L659 609L659 609L39 609z" /></clipPath><clipPath id="23"><path id="" clip-rule="evenodd" transform="matrix(1 0 0 1 0 0)" d="M39 835L659 835L659 835L659 609L659 609L39 609z" /></clipPath><clipPath id="24"><path id="" clip-rule="evenodd" transform="matrix(1 0 0 1 0 0)" d="M39 835L659 835L659 835L659 609L659 609L39 609z" /></clipPath><clipPath id="25"><path id="" clip-rule="evenodd" transform="matrix(1 0 0 1 0 0)" d="M110 657L110 691C 110 691.5523 109.5523 692 109 692L109 692L41 692C 40.44772 692 40 691.5523 40 691L40 691L40 623C 40 622.4477 40.44772 622 41 622L41 622L109 622C 109.5523 622 110 622.4477 110 623z" /></clipPath><clipPath id="26"><path id="" clip-rule="evenodd" transform="matrix(1 0 0 1 0 0)" d="M39 835L659 835L659 835L659 609L659 609L39 609z" /></clipPath><clipPath id="27"><path id="" clip-rule="evenodd" transform="matrix(1 0 0 1 0 0)" d="M121 687L609 687L609 687L609 621L609 621L121 621z" /></clipPath><clipPath id="28"><path id="" clip-rule="evenodd" transform="matrix(1 0 0 1 0 0)" d="M39 835L659 835L659 835L659 609L659 609L39 609z" /></clipPath><clipPath id="29"><path id="" clip-rule="evenodd" transform="matrix(1 0 0 1 0 0)" d="M39 977L659 977L659 977L659 836L659 836L39 836z" /></clipPath><clipPath id="30"><path id="" clip-rule="evenodd" transform="matrix(1 0 0 1 0 0)" d="M39 977L659 977L659 977L659 836L659 836L39 836z" /></clipPath><clipPath id="31"><path id="" clip-rule="evenodd" transform="matrix(1 0 0 1 0 0)" d="M110 884L110 918C 110 918.5523 109.5523 919 109 919L109 919L41 919C 40.44772 919 40 918.5523 40 918L40 918L40 850C 40 849.4477 40.44772 849 41 849L41 849L109 849C 109.5523 849 110 849.4477 110 850z" /></clipPath><clipPath id="32"><path id="" clip-rule="evenodd" transform="matrix(1 0 0 1 0 0)" d="M39 977L659 977L659 977L659 836L659 836L39 836z" /></clipPath><clipPath id="33"><path id="" clip-rule="evenodd" transform="matrix(1 0 0 1 0 0)" d="M121 914L609 914L609 914L609 848L609 848L121 848z" /></clipPath></defs><g transform="matrix(1.333333 0 0 1.333333 0 0)"><g clip-path="url(#1)"><g clip-path="url(#2)"><path id="1" transform="matrix(1 0 0 -1 0 977)" d="M0 977L698 977L698 0L0 0z" stroke="none" fill="#FFFFFF" fill-rule="nonzero" /><path id="2" transform="matrix(1 0 0 -1 0 977)" d="M0 2931L698 2931L698 -1564L0 -1564z" stroke="none" fill="#FAFBFC" fill-rule="nonzero" /><path id="3" transform="matrix(1 0 0 -1 0 977)" d="M29 2807L669 2807L669 -1468L29 -1468z" stroke="none" fill="#FFFFFF" fill-rule="nonzero" /></g><g clip-path="url(#3)"><path id="4" transform="matrix(1 0 0 -1 0 977)" d="M39 707L659 707L659 706L39 706z" stroke="none" fill="#EAEAEB" fill-rule="nonzero" /></g><g clip-path="url(#4)"></g><g clip-path="url(#5)"><path id="84" transform="matrix(1 0 0 -1 0 977)" d="M110 941L110 907C 110 906.4477 109.5523 906 109 906L109 906L41 906C 40.44772 906 40 906.4477 40 907L40 907L40 975C 40 975.5523 40.44772 976 41 976L41 976L109 976C 109.5523 976 110 975.5523 110 975zM111 941L111 907C 111 905.8954 110.1046 905 109 905L109 905L41 905C 39.89543 905 39 905.8954 39 907L39 907L39 975C 39 976.1046 39.89543 977 41 977L41 977L109 977C 110.1046 977 111 976.1046 111 975z" stroke="none" fill="#EDEDED" fill-rule="evenodd" /></g><g clip-path="url(#6)"><g clip-path="url(#7)"><g transform="matrix(1 0 0 1 40 1)"><g transform="matrix(1 0 0 1 0 0)"><image x="0" y="0" xlink:href="img_12.png" width="70" height="70" /></g></g></g></g><g clip-path="url(#8)"></g><g clip-path="url(#9)"></g><g clip-path="url(#10)"><path id="209" transform="matrix(1 0 0 -1 0 977)" d="M39 550L659 550L659 549L39 549z" stroke="none" fill="#EAEAEB" fill-rule="nonzero" /></g><g clip-path="url(#11)"></g><g clip-path="url(#12)"><path id="285" transform="matrix(1 0 0 -1 0 977)" d="M110 658L110 624C 110 623.4477 109.5523 623 109 623L109 623L41 623C 40.44772 623 40 623.4477 40 624L40 624L40 692C 40 692.5523 40.44772 693 41 693L41 693L109 693C 109.5523 693 110 692.5523 110 692zM111 658L111 624C 111 622.8954 110.1046 622 109 622L109 622L41 622C 39.89543 622 39 622.8954 39 624L39 624L39 692C 39 693.1046 39.89543 694 41 694L41 694L109 694C 110.1046 694 111 693.1046 111 692z" stroke="none" fill="#EDEDED" fill-rule="evenodd" /></g><g clip-path="url(#13)"><g clip-path="url(#14)"><g transform="matrix(1.147541 0 0 1 40 284)"><g transform="matrix(1 0 0 1 0 0)"><image x="0" y="0" xlink:href="img_13.png" width="61" height="70" /></g></g></g></g><g clip-path="url(#15)"></g><g clip-path="url(#16)"><path id="311" transform="matrix(1 0 0 -1 0 977)" d="M39 369L659 369L659 368L39 368z" stroke="none" fill="#EAEAEB" fill-rule="nonzero" /></g><g clip-path="url(#17)"></g><g clip-path="url(#18)"><path id="391" transform="matrix(1 0 0 -1 0 977)" d="M110 501L110 467C 110 466.4477 109.5523 466 109 466L109 466L41 466C 40.44772 466 40 466.4477 40 467L40 467L40 535C 40 535.5523 40.44772 536 41 536L41 536L109 536C 109.5523 536 110 535.5523 110 535zM111 501L111 467C 111 465.8954 110.1046 465 109 465L109 465L41 465C 39.89543 465 39 465.8954 39 467L39 467L39 535C 39 536.1046 39.89543 537 41 537L41 537L109 537C 110.1046 537 111 536.1046 111 535z" stroke="none" fill="#EDEDED" fill-rule="evenodd" /></g><g clip-path="url(#19)"><g clip-path="url(#20)"><g transform="matrix(1 0 0 1 40 441)"><g transform="matrix(1 0 0 1 0 0)"><image x="0" y="0" xlink:href="img_14.png" width="70" height="70" /></g></g></g></g><g clip-path="url(#21)"></g><g clip-path="url(#22)"><path id="416" transform="matrix(1 0 0 -1 0 977)" d="M39 142L659 142L659 141L39 141z" stroke="none" fill="#EAEAEB" fill-rule="nonzero" /></g><g clip-path="url(#23)"></g><g clip-path="url(#24)"><path id="481" transform="matrix(1 0 0 -1 0 977)" d="M110 320L110 286C 110 285.4477 109.5523 285 109 285L109 285L41 285C 40.44772 285 40 285.4477 40 286L40 286L40 354C 40 354.5523 40.44772 355 41 355L41 355L109 355C 109.5523 355 110 354.5523 110 354zM111 320L111 286C 111 284.8954 110.1046 284 109 284L109 284L41 284C 39.89543 284 39 284.8954 39 286L39 286L39 354C 39 355.1046 39.89543 356 41 356L41 356L109 356C 110.1046 356 111 355.1046 111 354z" stroke="none" fill="#EDEDED" fill-rule="evenodd" /></g><g clip-path="url(#25)"><g clip-path="url(#26)"><g transform="matrix(0.35 0 0 0.35 40 622)"><g transform="matrix(1 0 0 1 0 0)"><image x="0" y="0" xlink:href="img_15.png" width="200" height="200" /></g></g></g></g><g clip-path="url(#27)"></g><g clip-path="url(#28)"></g><g clip-path="url(#29)"></g><g clip-path="url(#30)"><path id="608" transform="matrix(1 0 0 -1 0 977)" d="M110 93L110 59C 110 58.44772 109.5523 58 109 58L109 58L41 58C 40.44772 58 40 58.44772 40 59L40 59L40 127C 40 127.5523 40.44772 128 41 128L41 128L109 128C 109.5523 128 110 127.5523 110 127zM111 93L111 59C 111 57.89543 110.1046 57 109 57L109 57L41 57C 39.89543 57 39 57.89543 39 59L39 59L39 127C 39 128.1046 39.89543 129 41 129L41 129L109 129C 110.1046 129 111 128.1046 111 127z" stroke="none" fill="#EDEDED" fill-rule="evenodd" /></g><g clip-path="url(#31)"><g clip-path="url(#32)"><g transform="matrix(0.3414634 0 0 0.3414634 40 849)"><g transform="matrix(1 0 0 1 0 0)"><image x="0" y="0" xlink:href="img_16.png" width="205" height="205" /></g></g></g></g><g clip-path="url(#33)"></g></g></g></svg>