<svg xmlns="http://www.w3.org/2000/svg" xmlns:xlink="http://www.w3.org/1999/xlink" id="body_4" preserveAspectRatio="xMinYMin meet" viewBox="0 0 931 1303"><defs><clipPath id="1"><path id="" clip-rule="evenodd" transform="matrix(1 0 0 1 0 0)" d="M0 977L0 0L0 0L698 0L698 0L698 977L698 977L0 977z" /></clipPath><clipPath id="2"><path id="" clip-rule="evenodd" transform="matrix(1 0 0 1 0 0)" d="M0 977L698 977L698 977L698 0L698 0L0 0z" /></clipPath><clipPath id="3"><path id="" clip-rule="evenodd" transform="matrix(1 0 0 1 0 0)" d="M39 76L659 76L659 76L659 0L659 0L39 0z" /></clipPath><clipPath id="4"><path id="" clip-rule="evenodd" transform="matrix(1 0 0 1 0 0)" d="M39 75L659 75L659 75L659 0L659 0L39 0z" /></clipPath><clipPath id="5"><path id="" clip-rule="evenodd" transform="matrix(1 0 0 1 0 0)" d="M39 277L659 277L659 277L659 76L659 76L39 76z" /></clipPath><clipPath id="6"><path id="" clip-rule="evenodd" transform="matrix(1 0 0 1 0 0)" d="M39 276L659 276L659 276L659 76L659 76L39 76z" /></clipPath><clipPath id="7"><path id="" clip-rule="evenodd" transform="matrix(1 0 0 1 0 0)" d="M39 276L659 276L659 276L659 76L659 76L39 76z" /></clipPath><clipPath id="8"><path id="" clip-rule="evenodd" transform="matrix(1 0 0 1 0 0)" d="M110 124L110 158C 110 158.5523 109.5523 159 109 159L109 159L41 159C 40.44772 159 40 158.5523 40 158L40 158L40 90C 40 89.44769 40.44772 89 41 89L41 89L109 89C 109.5523 89 110 89.44769 110 90z" /></clipPath><clipPath id="9"><path id="" clip-rule="evenodd" transform="matrix(1 0 0 1 0 0)" d="M39 276L659 276L659 276L659 76L659 76L39 76z" /></clipPath><clipPath id="10"><path id="" clip-rule="evenodd" transform="matrix(1 0 0 1 0 0)" d="M121 154L609 154L609 154L609 88L609 88L121 88z" /></clipPath><clipPath id="11"><path id="" clip-rule="evenodd" transform="matrix(1 0 0 1 0 0)" d="M39 410L659 410L659 410L659 277L659 277L39 277z" /></clipPath><clipPath id="12"><path id="" clip-rule="evenodd" transform="matrix(1 0 0 1 0 0)" d="M39 409L659 409L659 409L659 277L659 277L39 277z" /></clipPath><clipPath id="13"><path id="" clip-rule="evenodd" transform="matrix(1 0 0 1 0 0)" d="M39 409L659 409L659 409L659 277L659 277L39 277z" /></clipPath><clipPath id="14"><path id="" clip-rule="evenodd" transform="matrix(1 0 0 1 0 0)" d="M110 325L110 359C 110 359.5523 109.5523 360 109 360L109 360L41 360C 40.44772 360 40 359.5523 40 359L40 359L40 291C 40 290.4477 40.44772 290 41 290L41 290L109 290C 109.5523 290 110 290.4477 110 291z" /></clipPath><clipPath id="15"><path id="" clip-rule="evenodd" transform="matrix(1 0 0 1 0 0)" d="M39 409L659 409L659 409L659 277L659 277L39 277z" /></clipPath><clipPath id="16"><path id="" clip-rule="evenodd" transform="matrix(1 0 0 1 0 0)" d="M121 355L609 355L609 355L609 289L609 289L121 289z" /></clipPath><clipPath id="17"><path id="" clip-rule="evenodd" transform="matrix(1 0 0 1 0 0)" d="M39 563L659 563L659 563L659 410L659 410L39 410z" /></clipPath><clipPath id="18"><path id="" clip-rule="evenodd" transform="matrix(1 0 0 1 0 0)" d="M39 562L659 562L659 562L659 410L659 410L39 410z" /></clipPath><clipPath id="19"><path id="" clip-rule="evenodd" transform="matrix(1 0 0 1 0 0)" d="M39 562L659 562L659 562L659 410L659 410L39 410z" /></clipPath><clipPath id="20"><path id="" clip-rule="evenodd" transform="matrix(1 0 0 1 0 0)" d="M110 458L110 492C 110 492.5523 109.5523 493 109 493L109 493L41 493C 40.44772 493 40 492.5523 40 492L40 492L40 424C 40 423.4477 40.44772 423 41 423L41 423L109 423C 109.5523 423 110 423.4477 110 424z" /></clipPath><clipPath id="21"><path id="" clip-rule="evenodd" transform="matrix(1 0 0 1 0 0)" d="M39 562L659 562L659 562L659 410L659 410L39 410z" /></clipPath><clipPath id="22"><path id="" clip-rule="evenodd" transform="matrix(1 0 0 1 0 0)" d="M121 488L609 488L609 488L609 422L609 422L121 422z" /></clipPath><clipPath id="23"><path id="" clip-rule="evenodd" transform="matrix(1 0 0 1 0 0)" d="M39 786L659 786L659 786L659 563L659 563L39 563z" /></clipPath><clipPath id="24"><path id="" clip-rule="evenodd" transform="matrix(1 0 0 1 0 0)" d="M39 785L659 785L659 785L659 563L659 563L39 563z" /></clipPath><clipPath id="25"><path id="" clip-rule="evenodd" transform="matrix(1 0 0 1 0 0)" d="M639.4688 703L657.4688 703L657.4688 703L657.4688 682L657.4688 682L639.4688 682z" /></clipPath><clipPath id="26"><path id="" clip-rule="evenodd" transform="matrix(1 0 0 1 0 0)" d="M648 682L657 682L657 682L657 703L657 703L648 703C 643.0294 703 639 698.9705 639 694L639 694L639 691C 639 686.0295 643.0294 682 648 682z" /></clipPath><clipPath id="27"><path id="" clip-rule="evenodd" transform="matrix(1 0 0 1 0 0)" d="M648 683L657 683L657 683L657 702L657 702L648 702C 643.5817 702 640 698.4182 640 694L640 694L640 691C 640 686.5818 643.5817 683 648 683zM639 682L657 682L657 682L657 703L657 703L639 703z" /></clipPath><clipPath id="28"><path id="" clip-rule="evenodd" transform="matrix(1 0 0 1 0 0)" d="M639 682L648.9721 691.9722L648.9721 691.9722L657 683L657 683L657 683L657 683L657 682z" /></clipPath><clipPath id="29"><path id="" clip-rule="evenodd" transform="matrix(1 0 0 1 0 0)" d="M639 682L639 691.9722L639 691.9722L648.9721 691.9722L648.9721 691.9722L657 683L657 683L657 682z" /></clipPath><clipPath id="30"><path id="" clip-rule="evenodd" transform="matrix(1 0 0 1 0 0)" d="M39 785L659 785L659 785L659 563L659 563L39 563z" /></clipPath><clipPath id="31"><path id="" clip-rule="evenodd" transform="matrix(1 0 0 1 0 0)" d="M648 682L657 682L657 682L657 703L657 703L648 703C 643.0294 703 639 698.9705 639 694L639 694L639 691C 639 686.0295 643.0294 682 648 682z" /></clipPath><clipPath id="32"><path id="" clip-rule="evenodd" transform="matrix(1 0 0 1 0 0)" d="M648 683L657 683L657 683L657 702L657 702L648 702C 643.5817 702 640 698.4182 640 694L640 694L640 691C 640 686.5818 643.5817 683 648 683zM639 682L657 682L657 682L657 703L657 703L639 703z" /></clipPath><clipPath id="33"><path id="" clip-rule="evenodd" transform="matrix(1 0 0 1 0 0)" d="M639 703L648.9722 693.0278L648.9722 693.0278L657 702L657 702L657 702L657 702L657 703z" /></clipPath><clipPath id="34"><path id="" clip-rule="evenodd" transform="matrix(1 0 0 1 0 0)" d="M639 703L639 693.0278L639 693.0278L648.9722 693.0278L648.9722 693.0278L657 702L657 702L657 703z" /></clipPath><clipPath id="35"><path id="" clip-rule="evenodd" transform="matrix(1 0 0 1 0 0)" d="M39 785L659 785L659 785L659 563L659 563L39 563z" /></clipPath><clipPath id="36"><path id="" clip-rule="evenodd" transform="matrix(1 0 0 1 0 0)" d="M648 682L657 682L657 682L657 703L657 703L648 703C 643.0294 703 639 698.9705 639 694L639 694L639 691C 639 686.0295 643.0294 682 648 682z" /></clipPath><clipPath id="37"><path id="" clip-rule="evenodd" transform="matrix(1 0 0 1 0 0)" d="M648 683L657 683L657 683L657 702L657 702L648 702C 643.5817 702 640 698.4182 640 694L640 694L640 691C 640 686.5818 643.5817 683 648 683zM639 682L657 682L657 682L657 703L657 703L639 703z" /></clipPath><clipPath id="38"><path id="" clip-rule="evenodd" transform="matrix(1 0 0 1 0 0)" d="M639 682L648.9721 691.9722L648.9721 691.9722L648.9722 693.0278L648.9722 693.0278L639 703z" /></clipPath><clipPath id="39"><path id="" clip-rule="evenodd" transform="matrix(1 0 0 1 0 0)" d="M39 785L659 785L659 785L659 563L659 563L39 563z" /></clipPath><clipPath id="40"><path id="" clip-rule="evenodd" transform="matrix(1 0 0 1 0 0)" d="M39 785L659 785L659 785L659 563L659 563L39 563z" /></clipPath><clipPath id="41"><path id="" clip-rule="evenodd" transform="matrix(1 0 0 1 0 0)" d="M39 729L113 729L113 729L113 708L113 708L39 708z" /></clipPath><clipPath id="42"><path id="" clip-rule="evenodd" transform="matrix(1 0 0 1 0 0)" d="M39 708L103 708C 108.5229 708 113 712.4771 113 718L113 718L113 719C 113 724.5229 108.5229 729 103 729L103 729L39 729L39 729L39 708z" /></clipPath><clipPath id="43"><path id="" clip-rule="evenodd" transform="matrix(1 0 0 1 0 0)" d="M39 709L103 709C 107.9706 709 112 713.0295 112 718L112 718L112 719C 112 723.9705 107.9706 728 103 728L103 728L39 728L39 728L39 709zM39 708L113 708L113 708L113 729L113 729L39 729z" /></clipPath><clipPath id="44"><path id="" clip-rule="evenodd" transform="matrix(1 0 0 1 0 0)" d="M39 708L39 709L39 709L96.92387 724.0762L96.92387 724.0762L113 724.0762L113 724.0762L113 708z" /></clipPath><clipPath id="45"><path id="" clip-rule="evenodd" transform="matrix(1 0 0 1 0 0)" d="M39 708L39 709L39 709L39 709L39 709L96.92387 724.0762L96.92387 724.0762L113 708z" /></clipPath><clipPath id="46"><path id="" clip-rule="evenodd" transform="matrix(1 0 0 1 0 0)" d="M39 785L659 785L659 785L659 563L659 563L39 563z" /></clipPath><clipPath id="47"><path id="" clip-rule="evenodd" transform="matrix(1 0 0 1 0 0)" d="M39 708L103 708C 108.5229 708 113 712.4771 113 718L113 718L113 719C 113 724.5229 108.5229 729 103 729L103 729L39 729L39 729L39 708z" /></clipPath><clipPath id="48"><path id="" clip-rule="evenodd" transform="matrix(1 0 0 1 0 0)" d="M39 709L103 709C 107.9706 709 112 713.0295 112 718L112 718L112 719C 112 723.9705 107.9706 728 103 728L103 728L39 728L39 728L39 709zM39 708L113 708L113 708L113 729L113 729L39 729z" /></clipPath><clipPath id="49"><path id="" clip-rule="evenodd" transform="matrix(1 0 0 1 0 0)" d="M39 729L39 728L39 728L96.92387 712.9238L96.92387 712.9238L113 712.9238L113 712.9238L113 729z" /></clipPath><clipPath id="50"><path id="" clip-rule="evenodd" transform="matrix(1 0 0 1 0 0)" d="M39 729L39 728L39 728L39 728L39 728L96.92387 712.9238L96.92387 712.9238L113 729z" /></clipPath><clipPath id="51"><path id="" clip-rule="evenodd" transform="matrix(1 0 0 1 0 0)" d="M39 785L659 785L659 785L659 563L659 563L39 563z" /></clipPath><clipPath id="52"><path id="" clip-rule="evenodd" transform="matrix(1 0 0 1 0 0)" d="M39 708L103 708C 108.5229 708 113 712.4771 113 718L113 718L113 719C 113 724.5229 108.5229 729 103 729L103 729L39 729L39 729L39 708z" /></clipPath><clipPath id="53"><path id="" clip-rule="evenodd" transform="matrix(1 0 0 1 0 0)" d="M39 709L103 709C 107.9706 709 112 713.0295 112 718L112 718L112 719C 112 723.9705 107.9706 728 103 728L103 728L39 728L39 728L39 709zM39 708L113 708L113 708L113 729L113 729L39 729z" /></clipPath><clipPath id="54"><path id="" clip-rule="evenodd" transform="matrix(1 0 0 1 0 0)" d="M113 708L96.92387 724.0762L96.92387 724.0762L96.92387 712.9238L96.92387 712.9238L113 729z" /></clipPath><clipPath id="55"><path id="" clip-rule="evenodd" transform="matrix(1 0 0 1 0 0)" d="M39 785L659 785L659 785L659 563L659 563L39 563z" /></clipPath><clipPath id="56"><path id="" clip-rule="evenodd" transform="matrix(1 0 0 1 0 0)" d="M39 785L659 785L659 785L659 563L659 563L39 563z" /></clipPath><clipPath id="57"><path id="" clip-rule="evenodd" transform="matrix(1 0 0 1 0 0)" d="M39 785L659 785L659 785L659 563L659 563L39 563z" /></clipPath><clipPath id="58"><path id="" clip-rule="evenodd" transform="matrix(1 0 0 1 0 0)" d="M110 611L110 645C 110 645.5523 109.5523 646 109 646L109 646L41 646C 40.44772 646 40 645.5523 40 645L40 645L40 577C 40 576.4477 40.44772 576 41 576L41 576L109 576C 109.5523 576 110 576.4477 110 577z" /></clipPath><clipPath id="59"><path id="" clip-rule="evenodd" transform="matrix(1 0 0 1 0 0)" d="M39 785L659 785L659 785L659 563L659 563L39 563z" /></clipPath><clipPath id="60"><path id="" clip-rule="evenodd" transform="matrix(1 0 0 1 0 0)" d="M121 641L609 641L609 641L609 575L609 575L121 575z" /></clipPath><clipPath id="61"><path id="" clip-rule="evenodd" transform="matrix(1 0 0 1 0 0)" d="M39 785L659 785L659 785L659 563L659 563L39 563z" /></clipPath><clipPath id="62"><path id="" clip-rule="evenodd" transform="matrix(1 0 0 1 0 0)" d="M39 939L659 939L659 939L659 786L659 786L39 786z" /></clipPath><clipPath id="63"><path id="" clip-rule="evenodd" transform="matrix(1 0 0 1 0 0)" d="M39 938L659 938L659 938L659 786L659 786L39 786z" /></clipPath><clipPath id="64"><path id="" clip-rule="evenodd" transform="matrix(1 0 0 1 0 0)" d="M39 938L659 938L659 938L659 786L659 786L39 786z" /></clipPath><clipPath id="65"><path id="" clip-rule="evenodd" transform="matrix(1 0 0 1 0 0)" d="M110 834L110 868C 110 868.5523 109.5523 869 109 869L109 869L41 869C 40.44772 869 40 868.5523 40 868L40 868L40 800C 40 799.4477 40.44772 799 41 799L41 799L109 799C 109.5523 799 110 799.4477 110 800z" /></clipPath><clipPath id="66"><path id="" clip-rule="evenodd" transform="matrix(1 0 0 1 0 0)" d="M39 938L659 938L659 938L659 786L659 786L39 786z" /></clipPath><clipPath id="67"><path id="" clip-rule="evenodd" transform="matrix(1 0 0 1 0 0)" d="M121 864L609 864L609 864L609 798L609 798L121 798z" /></clipPath></defs><g transform="matrix(1.333333 0 0 1.333333 0 0)"><g clip-path="url(#1)"><g clip-path="url(#2)"><path id="1" transform="matrix(1 0 0 -1 0 977)" d="M0 977L698 977L698 0L0 0z" stroke="none" fill="#FFFFFF" fill-rule="nonzero" /><path id="2" transform="matrix(1 0 0 -1 0 977)" d="M0 3908L698 3908L698 -587L0 -587z" stroke="none" fill="#FAFBFC" fill-rule="nonzero" /><path id="3" transform="matrix(1 0 0 -1 0 977)" d="M29 3784L669 3784L669 -491L29 -491z" stroke="none" fill="#FFFFFF" fill-rule="nonzero" /></g><g clip-path="url(#3)"><path id="4" transform="matrix(1 0 0 -1 0 977)" d="M39 902L659 902L659 901L39 901z" stroke="none" fill="#EAEAEB" fill-rule="nonzero" /></g><g clip-path="url(#4)"><path id="64" transform="matrix(1 0 0 -1 0 977)" d="M430 928.5L430 928C 430 922.4772 425.5228 918 420 918L420 918L348 918C 342.4772 918 338 922.4772 338 928L338 928L338 929C 338 934.5228 342.4772 939 348 939L348 939L420 939C 425.5228 939 430 934.5228 430 929z" stroke="none" fill="#7BBE1E" fill-rule="nonzero" /><path id="65" transform="matrix(1 0 0 -1 0 977)" d="M429 928.5L429 928C 429 923.0294 424.9706 919 420 919L420 919L348 919C 343.0294 919 339 923.0294 339 928L339 928L339 929C 339 933.9706 343.0294 938 348 938L348 938L420 938C 424.9706 938 429 933.9706 429 929zM430 928.5L430 928C 430 922.4772 425.5228 918 420 918L420 918L348 918C 342.4772 918 338 922.4772 338 928L338 928L338 929C 338 934.5228 342.4772 939 348 939L348 939L420 939C 425.5228 939 430 934.5228 430 929z" stroke="none" fill="#7BBE1E" fill-rule="evenodd" /></g><g clip-path="url(#5)"><path id="80" transform="matrix(1 0 0 -1 0 977)" d="M39 701L659 701L659 700L39 700z" stroke="none" fill="#EAEAEB" fill-rule="nonzero" /></g><g clip-path="url(#6)"></g><g clip-path="url(#7)"><path id="201" transform="matrix(1 0 0 -1 0 977)" d="M110 853L110 819C 110 818.4477 109.5523 818 109 818L109 818L41 818C 40.44772 818 40 818.4477 40 819L40 819L40 887C 40 887.5523 40.44772 888 41 888L41 888L109 888C 109.5523 888 110 887.5523 110 887zM111 853L111 819C 111 817.8954 110.1046 817 109 817L109 817L41 817C 39.89543 817 39 817.8954 39 819L39 819L39 887C 39 888.1046 39.89543 889 41 889L41 889L109 889C 110.1046 889 111 888.1046 111 887z" stroke="none" fill="#EDEDED" fill-rule="evenodd" /></g><g clip-path="url(#8)"><g clip-path="url(#9)"><g transform="matrix(1.09375 0 0 1.09375 40 89)"><g transform="matrix(1 0 0 1 0 0)"><image x="0" y="0" xlink:href="img_18.png" width="64" height="64" /></g></g></g></g><g clip-path="url(#10)"></g><g clip-path="url(#11)"><path id="228" transform="matrix(1 0 0 -1 0 977)" d="M39 568L659 568L659 567L39 567z" stroke="none" fill="#EAEAEB" fill-rule="nonzero" /></g><g clip-path="url(#12)"></g><g clip-path="url(#13)"><path id="251" transform="matrix(1 0 0 -1 0 977)" d="M110 652L110 618C 110 617.4477 109.5523 617 109 617L109 617L41 617C 40.44772 617 40 617.4477 40 618L40 618L40 686C 40 686.5523 40.44772 687 41 687L41 687L109 687C 109.5523 687 110 686.5523 110 686zM111 652L111 618C 111 616.8954 110.1046 616 109 616L109 616L41 616C 39.89543 616 39 616.8954 39 618L39 618L39 686C 39 687.1046 39.89543 688 41 688L41 688L109 688C 110.1046 688 111 687.1046 111 686z" stroke="none" fill="#EDEDED" fill-rule="evenodd" /></g><g clip-path="url(#14)"><g clip-path="url(#15)"><g transform="matrix(1.09375 0 0 1.09375 40 290)"><g transform="matrix(1 0 0 1 0 0)"><image x="0" y="0" xlink:href="img_19.png" width="64" height="64" /></g></g></g></g><g clip-path="url(#16)"></g><g clip-path="url(#17)"><path id="278" transform="matrix(1 0 0 -1 0 977)" d="M39 415L659 415L659 414L39 414z" stroke="none" fill="#EAEAEB" fill-rule="nonzero" /></g><g clip-path="url(#18)"></g><g clip-path="url(#19)"><path id="332" transform="matrix(1 0 0 -1 0 977)" d="M110 519L110 485C 110 484.4477 109.5523 484 109 484L109 484L41 484C 40.44772 484 40 484.4477 40 485L40 485L40 553C 40 553.5523 40.44772 554 41 554L41 554L109 554C 109.5523 554 110 553.5523 110 553zM111 519L111 485C 111 483.8954 110.1046 483 109 483L109 483L41 483C 39.89543 483 39 483.8954 39 485L39 485L39 553C 39 554.1046 39.89543 555 41 555L41 555L109 555C 110.1046 555 111 554.1046 111 553z" stroke="none" fill="#EDEDED" fill-rule="evenodd" /></g><g clip-path="url(#20)"><g clip-path="url(#21)"><g transform="matrix(1.09375 0 0 1.09375 40 423)"><g transform="matrix(1 0 0 1 0 0)"><image x="0" y="0" xlink:href="img_20.png" width="64" height="64" /></g></g></g></g><g clip-path="url(#22)"></g><g clip-path="url(#23)"><path id="359" transform="matrix(1 0 0 -1 0 977)" d="M39 192L659 192L659 191L39 191z" stroke="none" fill="#EAEAEB" fill-rule="nonzero" /></g><g clip-path="url(#24)"></g><g clip-path="url(#25)"><path id="438" transform="matrix(1 0 0 -1 0 977)" d="M648 295L731 295L731 295L731 274L731 274L648 274C 643.0294 274 639 278.0295 639 283L639 283L639 286C 639 290.9705 643.0294 295 648 295z" stroke="none" fill="#7BBE1E" fill-rule="nonzero" /></g><g clip-path="url(#26)"><g clip-path="url(#27)"><g clip-path="url(#28)"><g clip-path="url(#29)"><g clip-path="url(#30)"><path id="439" transform="matrix(1 0 0 -1 0 977)" d="M639 295L657 295L657 274L639 274z" stroke="none" fill="#7BBE1E" fill-rule="nonzero" /></g></g></g></g></g><g clip-path="url(#31)"><g clip-path="url(#32)"><g clip-path="url(#33)"><g clip-path="url(#34)"><g clip-path="url(#35)"><path id="440" transform="matrix(1 0 0 -1 0 977)" d="M639 295L657 295L657 274L639 274z" stroke="none" fill="#7BBE1E" fill-rule="nonzero" /></g></g></g></g></g><g clip-path="url(#36)"><g clip-path="url(#37)"><g clip-path="url(#38)"><g clip-path="url(#39)"><path id="441" transform="matrix(1 0 0 -1 0 977)" d="M639 295L657 295L657 274L639 274z" stroke="none" fill="#7BBE1E" fill-rule="nonzero" /></g></g></g></g><g clip-path="url(#40)"></g><g clip-path="url(#41)"><path id="443" transform="matrix(1 0 0 -1 0 977)" d="M21 269L103 269C 108.5229 269 113 264.5229 113 259L113 259L113 258C 113 252.4771 108.5229 248 103 248L103 248L21 248L21 248L21 269z" stroke="none" fill="#7BBE1E" fill-rule="nonzero" /></g><g clip-path="url(#42)"><g clip-path="url(#43)"><g clip-path="url(#44)"><g clip-path="url(#45)"><g clip-path="url(#46)"><path id="444" transform="matrix(1 0 0 -1 0 977)" d="M39 269L113 269L113 248L39 248z" stroke="none" fill="#7BBE1E" fill-rule="nonzero" /></g></g></g></g></g><g clip-path="url(#47)"><g clip-path="url(#48)"><g clip-path="url(#49)"><g clip-path="url(#50)"><g clip-path="url(#51)"><path id="445" transform="matrix(1 0 0 -1 0 977)" d="M39 269L113 269L113 248L39 248z" stroke="none" fill="#7BBE1E" fill-rule="nonzero" /></g></g></g></g></g><g clip-path="url(#52)"><g clip-path="url(#53)"><g clip-path="url(#54)"><g clip-path="url(#55)"><path id="446" transform="matrix(1 0 0 -1 0 977)" d="M39 269L113 269L113 248L39 248z" stroke="none" fill="#7BBE1E" fill-rule="nonzero" /></g></g></g></g><g clip-path="url(#56)"></g><g clip-path="url(#57)"><path id="464" transform="matrix(1 0 0 -1 0 977)" d="M110 366L110 332C 110 331.4477 109.5523 331 109 331L109 331L41 331C 40.44772 331 40 331.4477 40 332L40 332L40 400C 40 400.5523 40.44772 401 41 401L41 401L109 401C 109.5523 401 110 400.5523 110 400zM111 366L111 332C 111 330.8954 110.1046 330 109 330L109 330L41 330C 39.89543 330 39 330.8954 39 332L39 332L39 400C 39 401.1046 39.89543 402 41 402L41 402L109 402C 110.1046 402 111 401.1046 111 400z" stroke="none" fill="#EDEDED" fill-rule="evenodd" /></g><g clip-path="url(#58)"><g clip-path="url(#59)"><g transform="matrix(1.09375 0 0 1.09375 40 576)"><g transform="matrix(1 0 0 1 0 0)"><image x="0" y="0" xlink:href="img_21.png" width="64" height="64" /></g></g></g></g><g clip-path="url(#60)"></g><g clip-path="url(#61)"></g><g clip-path="url(#62)"><path id="517" transform="matrix(1 0 0 -1 0 977)" d="M39 39L659 39L659 38L39 38z" stroke="none" fill="#EAEAEB" fill-rule="nonzero" /></g><g clip-path="url(#63)"></g><g clip-path="url(#64)"><path id="567" transform="matrix(1 0 0 -1 0 977)" d="M110 143L110 109C 110 108.4477 109.5523 108 109 108L109 108L41 108C 40.44772 108 40 108.4477 40 109L40 109L40 177C 40 177.5523 40.44772 178 41 178L41 178L109 178C 109.5523 178 110 177.5523 110 177zM111 143L111 109C 111 107.8954 110.1046 107 109 107L109 107L41 107C 39.89543 107 39 107.8954 39 109L39 109L39 177C 39 178.1046 39.89543 179 41 179L41 179L109 179C 110.1046 179 111 178.1046 111 177z" stroke="none" fill="#EDEDED" fill-rule="evenodd" /></g><g clip-path="url(#65)"><g clip-path="url(#66)"><g transform="matrix(1.09375 0 0 1.09375 40 799)"><g transform="matrix(1 0 0 1 0 0)"><image x="0" y="0" xlink:href="img_22.png" width="64" height="64" /></g></g></g></g><g clip-path="url(#67)"></g></g></g></svg>